# xmcd
#
# Track frame offsets: 
#        150
#        12257
#        24020
#        40875
#        53147
#        62722
#        75700
#        87522
#        97402
#        111582
#        128402
#        141157
#        153867
#        167290
#        177967
#        190965
#
# Disc length: 2710 seconds
#
# Revision: 1
# Processed by: cddbd v1.5.2PL0 Copyright (c) Steve Scherf et al.
# Submitted via: ExactAudioCopyFreeDBPlugin 1.0
#
DISCID=cb0a9410
DTITLE=Merle Haggard - Okie from muskogee - The Most Wanted
DYEAR=1997
DGENRE=Country
TTITLE0=Okie from muskogee
TTITLE1=from graceland to the promised land
TTITLE2=today i started loving you agian
TTITLE3=everybody's had the blues
TTITLE4=the legend of bonnie and clyde
TTITLE5=the fighting side of me
TTITLE6=carolyn
TTITLE7=mama tried
TTITLE8=always wanting you
TTITLE9=daddy frank
TTITLE10=it's been a great afternoon
TTITLE11=I'm always on a mountain
TTITLE12=the way I am
TTITLE13=someday we'll look back
TTITLE14=swingin doors
TTITLE15=if we can make it though december
EXTD=
EXTT0=
EXTT1=
EXTT2=
EXTT3=
EXTT4=
EXTT5=
EXTT6=
EXTT7=
EXTT8=
EXTT9=
EXTT10=
EXTT11=
EXTT12=
EXTT13=
EXTT14=
EXTT15=
PLAYORDER=
